<svg width="20" height="20" viewBox="0 0 20 20" fill="none" xmlns="http://www.w3.org/2000/svg">
<rect x="5.85034" y="9.23714" width="0.645161" height="0.714286" fill="#FFFAFA"/>
<rect x="5" y="9" width="1.29032" height="1.42857" fill="#FFFAFA"/>
<g style="mix-blend-mode:multiply">
<rect width="20" height="20" rx="10" fill="#0D4EA4"/>
</g>
<path fill-rule="evenodd" clip-rule="evenodd" d="M5.00321 9.27369C5.00238 9.10584 5.06181 8.94451 5.16842 8.82518C5.27502 8.70584 5.42008 8.63829 5.57168 8.63737L15.8606 8.5749C16.0122 8.57398 16.1579 8.63977 16.2657 8.7578C16.3734 8.87584 16.4345 9.03644 16.4353 9.20428C16.4361 9.37212 16.3767 9.53345 16.2701 9.65279C16.1635 9.77212 16.0184 9.83968 15.8668 9.8406L5.57795 9.90306C5.42635 9.90398 5.28063 9.83819 5.17285 9.72016C5.06506 9.60213 5.00404 9.44153 5.00321 9.27369V9.27369Z" fill="white"/>
<path fill-rule="evenodd" clip-rule="evenodd" d="M4.19215 9.66744C4.13863 9.60898 4.09605 9.5394 4.06685 9.46269C4.03765 9.38598 4.02241 9.30365 4.022 9.22041C4.02159 9.13717 4.03601 9.05465 4.06445 8.97759C4.09288 8.90053 4.13477 8.83044 4.18771 8.77133L7.59853 4.95343C7.70527 4.83394 7.85051 4.7663 8.0023 4.76538C8.15409 4.76446 8.3 4.83033 8.40792 4.94851C8.51584 5.06669 8.57694 5.2275 8.57777 5.39555C8.5786 5.56361 8.5191 5.72514 8.41236 5.84463L5.40287 9.21202L8.44553 12.5427C8.55345 12.6609 8.61455 12.8217 8.61538 12.9897C8.61622 13.1578 8.55671 13.3193 8.44997 13.4388C8.34323 13.5583 8.19799 13.6259 8.04619 13.6268C7.8944 13.6278 7.7485 13.5619 7.64058 13.4437L4.19215 9.66744Z" fill="white"/>
</svg>
