<svg width="21" height="18" viewBox="0 0 21 18" fill="none" xmlns="http://www.w3.org/2000/svg">
<path d="M19.16 2.00004C18.1 0.937251 16.6948 0.288583 15.1984 0.171213C13.7019 0.0538432 12.2128 0.475509 11 1.36004C9.72769 0.413681 8.14402 -0.0154454 6.56795 0.159081C4.99188 0.333607 3.54047 1.09882 2.506 2.30063C1.47154 3.50244 0.930854 5.05156 0.992833 6.63606C1.05481 8.22055 1.71485 9.72271 2.84003 10.84L9.05003 17.06C9.57005 17.5718 10.2704 17.8587 11 17.8587C11.7296 17.8587 12.43 17.5718 12.95 17.06L19.16 10.84C20.3276 9.66531 20.983 8.07632 20.983 6.42004C20.983 4.76377 20.3276 3.17478 19.16 2.00004Z" fill="#F15152"/>
</svg>
